<svg width="68" height="18" viewBox="0 0 68 18" fill="none" xmlns="http://www.w3.org/2000/svg">
<path d="M24.8471 14.6752L22.8519 10.7869L22.4639 11.2941V14.6752H20.0068V1.52637H22.4639V8.10081L24.6808 5.28319H27.4889L24.3668 9.04001L27.6736 14.6752H24.8471Z" fill="white"/>
<path d="M35.9957 9.79138C35.9957 10.7807 35.9095 11.6009 35.7371 12.2521C35.5646 12.8908 35.3121 13.4042 34.9796 13.7924C34.6471 14.1681 34.2283 14.4311 33.7234 14.5813C33.2307 14.7316 32.658 14.8067 32.0053 14.8067C31.3525 14.8067 30.7798 14.7316 30.2872 14.5813C29.7945 14.4311 29.3819 14.1681 29.0494 13.7924C28.7169 13.4042 28.4644 12.8908 28.2919 12.2521C28.1318 11.6009 28.0518 10.7807 28.0518 9.79138C28.0518 8.18847 28.3597 7.01759 28.9755 6.27875C29.6036 5.52738 30.6135 5.1517 32.0053 5.1517C33.397 5.1517 34.4069 5.52738 35.035 6.27875C35.6755 7.01759 35.9957 8.18847 35.9957 9.79138ZM33.4832 10.0731C33.4832 9.52214 33.4586 9.06506 33.4093 8.7019C33.36 8.32622 33.2738 8.02567 33.1507 7.80026C33.0398 7.57485 32.892 7.41832 32.7073 7.33066C32.5225 7.23048 32.2885 7.18038 32.0053 7.18038C31.7343 7.18038 31.5065 7.23048 31.3217 7.33066C31.137 7.41832 30.9892 7.57485 30.8783 7.80026C30.7675 8.02567 30.6874 8.32622 30.6382 8.7019C30.5889 9.06506 30.5643 9.52214 30.5643 10.0731C30.5643 10.5991 30.5827 11.0374 30.6197 11.388C30.669 11.7261 30.749 12.0016 30.8599 12.2145C30.9707 12.4149 31.1185 12.5589 31.3032 12.6466C31.488 12.7342 31.722 12.778 32.0053 12.778C32.2885 12.778 32.5225 12.7342 32.7073 12.6466C32.9043 12.5589 33.0583 12.4149 33.1691 12.2145C33.28 12.0016 33.36 11.7261 33.4093 11.388C33.4586 11.0374 33.4832 10.5991 33.4832 10.0731Z" fill="white"/>
<path d="M45.2379 9.79138C45.2379 10.7807 45.1516 11.6009 44.9792 12.2521C44.8068 12.8908 44.5543 13.4042 44.2218 13.7924C43.8892 14.1681 43.4705 14.4311 42.9655 14.5813C42.4729 14.7316 41.9002 14.8067 41.2474 14.8067C40.5947 14.8067 40.022 14.7316 39.5293 14.5813C39.0367 14.4311 38.6241 14.1681 38.2915 13.7924C37.959 13.4042 37.7065 12.8908 37.5341 12.2521C37.374 11.6009 37.2939 10.7807 37.2939 9.79138C37.2939 8.18847 37.6018 7.01759 38.2176 6.27875C38.8458 5.52738 39.8557 5.1517 41.2474 5.1517C42.6391 5.1517 43.6491 5.52738 44.2772 6.27875C44.9176 7.01759 45.2379 8.18847 45.2379 9.79138ZM42.7254 10.0731C42.7254 9.52214 42.7007 9.06506 42.6515 8.7019C42.6022 8.32622 42.516 8.02567 42.3928 7.80026C42.282 7.57485 42.1342 7.41832 41.9494 7.33066C41.7647 7.23048 41.5307 7.18038 41.2474 7.18038C40.9765 7.18038 40.7486 7.23048 40.5639 7.33066C40.3791 7.41832 40.2313 7.57485 40.1205 7.80026C40.0096 8.02567 39.9296 8.32622 39.8803 8.7019C39.8311 9.06506 39.8064 9.52214 39.8064 10.0731C39.8064 10.5991 39.8249 11.0374 39.8619 11.388C39.9111 11.7261 39.9912 12.0016 40.102 12.2145C40.2129 12.4149 40.3607 12.5589 40.5454 12.6466C40.7301 12.7342 40.9641 12.778 41.2474 12.778C41.5307 12.778 41.7647 12.7342 41.9494 12.6466C42.1465 12.5589 42.3004 12.4149 42.4113 12.2145C42.5221 12.0016 42.6022 11.7261 42.6515 11.388C42.7007 11.0374 42.7254 10.5991 42.7254 10.0731Z" fill="white"/>
<path d="M50.5081 14.6189C50.3726 14.6439 50.1447 14.6752 49.8245 14.7128C49.5166 14.7504 49.1841 14.7692 48.8269 14.7692C48.0633 14.7692 47.5337 14.5375 47.2381 14.0742C46.9548 13.5983 46.8132 12.872 46.8132 11.8952V1.52637H49.2703V11.8013C49.2703 12.1018 49.3072 12.3147 49.3811 12.4399C49.455 12.5526 49.609 12.609 49.843 12.609C49.9785 12.609 50.1078 12.6027 50.2309 12.5902C50.3664 12.5652 50.4588 12.5464 50.5081 12.5339V14.6189Z" fill="white"/>
<path d="M58.1017 14.6752C57.8554 14.6752 57.5721 14.6252 57.2519 14.525C56.9316 14.4248 56.6853 14.2182 56.5129 13.9051C56.2789 14.1931 55.971 14.4248 55.5892 14.6001C55.2074 14.7629 54.7024 14.8443 54.0743 14.8443C53.6679 14.8443 53.2922 14.7942 52.9474 14.694C52.6025 14.5938 52.3008 14.4311 52.0421 14.2056C51.7958 13.9677 51.5988 13.6609 51.451 13.2852C51.3155 12.897 51.2477 12.4149 51.2477 11.8388C51.2477 10.6993 51.5803 9.89156 52.2453 9.41569C52.9227 8.93983 53.8957 8.7019 55.1643 8.7019H55.9956V8.30743C55.9956 7.94427 55.9032 7.66877 55.7185 7.48093C55.5461 7.28057 55.2259 7.18038 54.7578 7.18038C54.2282 7.18038 53.7356 7.22421 53.2799 7.31187C52.8365 7.38701 52.3808 7.49345 51.9128 7.6312V5.48981C52.0852 5.43972 52.2885 5.39589 52.5225 5.35833C52.7565 5.30824 52.9966 5.26441 53.243 5.22684C53.5016 5.18927 53.7602 5.16422 54.0189 5.1517C54.2898 5.12666 54.5362 5.11413 54.7578 5.11413C55.5461 5.11413 56.1804 5.18301 56.6607 5.32076C57.141 5.44598 57.5105 5.64635 57.7691 5.92185C58.0401 6.19735 58.2187 6.54799 58.3049 6.97376C58.4034 7.39953 58.4527 7.90044 58.4527 8.47649V12.1957C58.4527 12.3836 58.5019 12.5339 58.6005 12.6466C58.699 12.7467 58.8899 12.7968 59.1732 12.7968V14.6752H58.1017ZM54.7763 12.7405C55.035 12.7405 55.2382 12.6967 55.386 12.609C55.5461 12.5088 55.6692 12.3898 55.7554 12.2521C55.854 12.1143 55.9156 11.9703 55.9402 11.8201C55.9771 11.6573 55.9956 11.5133 55.9956 11.388V10.5427H55.0719C54.6778 10.5427 54.3576 10.6304 54.1112 10.8057C53.8649 10.981 53.7418 11.2816 53.7418 11.7074C53.7418 11.9954 53.8157 12.2396 53.9635 12.4399C54.1236 12.6403 54.3945 12.7405 54.7763 12.7405Z" fill="white"/>
<path d="M65.6353 15.4642C65.2411 17.1547 64.3667 18 63.0119 18C62.9134 18 62.7779 17.9938 62.6055 17.9812C62.4454 17.9812 62.2791 17.975 62.1067 17.9625C61.9466 17.9625 61.7926 17.9562 61.6448 17.9437C61.5093 17.9312 61.4108 17.9186 61.3492 17.9061V15.7835C61.6448 15.8211 61.9466 15.8399 62.2545 15.8399C62.7594 15.8399 63.0612 15.5644 63.1597 15.0134L63.2151 14.6752H62.587L59.6311 5.28319H62.2545L64.0465 12.5902L65.6168 5.28319H68L65.6353 15.4642Z" fill="white"/>
<path d="M0.909058 4.69603C0.909058 2.10248 2.97685 0 5.52761 0H12.4554C15.0062 0 17.074 2.10248 17.074 4.69603V11.7401C17.074 14.3336 15.0062 16.4361 12.4554 16.4361H5.52761C2.97685 16.4361 0.909058 14.3336 0.909058 11.7401V4.69603Z" fill="white"/>
<path fill-rule="evenodd" clip-rule="evenodd" d="M5.09448 4.69611C5.09448 4.45297 5.28834 4.25586 5.52747 4.25586H12.1666C12.5652 4.25586 12.8883 4.58437 12.8883 4.98961V11.7402C12.8883 11.9833 12.6944 12.1804 12.4553 12.1804C12.2162 12.1804 12.0223 11.9833 12.0223 11.7402V5.13636H5.52747C5.28834 5.13636 5.09448 4.93926 5.09448 4.69611Z" fill="#178BFA"/>
<path fill-rule="evenodd" clip-rule="evenodd" d="M7.40393 7.04401C7.40393 6.80087 7.59779 6.60376 7.83692 6.60376H9.85754C10.2561 6.60376 10.5792 6.93227 10.5792 7.33751V9.39203C10.5792 9.63517 10.3853 9.83228 10.1462 9.83228C9.90706 9.83228 9.71321 9.63517 9.71321 9.39203V7.48426H7.83692C7.59779 7.48426 7.40393 7.28716 7.40393 7.04401Z" fill="#178BFA"/>
</svg>
