<svg width="194" height="42" viewBox="0 0 194 42" fill="none" xmlns="http://www.w3.org/2000/svg">
<rect width="42" height="42" rx="21" fill="#0786FF"/>
<path d="M16.9374 34.75C16.3124 34.75 15.7657 34.5467 15.2974 34.14C14.8282 33.7342 14.552 33.2188 14.4686 32.5938L12.4374 17.4062C12.3957 17.0312 12.4999 16.7029 12.7499 16.4212C12.9999 16.1404 13.3124 16 13.6874 16H28.3124C28.6874 16 28.9999 16.1404 29.2499 16.4212C29.4999 16.7029 29.6041 17.0312 29.5624 17.4062L27.5311 32.5938C27.4478 33.2188 27.1716 33.7342 26.7024 34.14C26.2341 34.5467 25.6874 34.75 25.0624 34.75H16.9374ZM16.9374 32.25H25.0624L26.8749 18.5H15.0936L16.9374 32.25ZM20.9999 26C22.0416 26 22.927 25.6354 23.6561 24.9062C24.3853 24.1771 24.7499 23.2917 24.7499 22.25V21C24.7499 20.6458 24.6303 20.3487 24.3911 20.1087C24.1511 19.8696 23.8541 19.75 23.4999 19.75C23.1457 19.75 22.8491 19.8696 22.6099 20.1087C22.3699 20.3487 22.2499 20.6458 22.2499 21V22.25C22.2499 22.6042 22.1303 22.9008 21.8911 23.14C21.6511 23.38 21.3541 23.5 20.9999 23.5C20.6457 23.5 20.3491 23.38 20.1099 23.14C19.8699 22.9008 19.7499 22.6042 19.7499 22.25V21C19.7499 20.6458 19.6303 20.3487 19.3911 20.1087C19.1511 19.8696 18.8541 19.75 18.4999 19.75C18.1457 19.75 17.8491 19.8696 17.6099 20.1087C17.3699 20.3487 17.2499 20.6458 17.2499 21V22.25C17.2499 23.2917 17.6145 24.1771 18.3436 24.9062C19.0728 25.6354 19.9582 26 20.9999 26ZM24.7499 14.75C24.2291 14.75 23.7866 14.5675 23.4224 14.2025C23.0574 13.8383 22.8749 13.3958 22.8749 12.875C22.8749 12.3542 23.0574 11.9117 23.4224 11.5475C23.7866 11.1825 24.2291 11 24.7499 11C25.2707 11 25.7132 11.1825 26.0774 11.5475C26.4424 11.9117 26.6249 12.3542 26.6249 12.875C26.6249 13.3958 26.4424 13.8383 26.0774 14.2025C25.7132 14.5675 25.2707 14.75 24.7499 14.75ZM18.4999 13.5C17.6249 13.5 16.8853 13.1979 16.2811 12.5938C15.677 11.9896 15.3749 11.25 15.3749 10.375C15.3749 9.5 15.677 8.76042 16.2811 8.15625C16.8853 7.55208 17.6249 7.25 18.4999 7.25C19.3749 7.25 20.1145 7.55208 20.7186 8.15625C21.3228 8.76042 21.6249 9.5 21.6249 10.375C21.6249 11.25 21.3228 11.9896 20.7186 12.5938C20.1145 13.1979 19.3749 13.5 18.4999 13.5Z" fill="white"/>
<path d="M193.636 28.5C192.324 30.052 190.74 30.828 188.884 30.828C187.588 30.828 186.492 30.524 185.596 29.916C184.7 29.308 184.028 28.492 183.58 27.468C183.132 26.428 182.908 25.292 182.908 24.06C182.908 22.796 183.132 21.652 183.58 20.628C184.028 19.588 184.7 18.764 185.596 18.156C186.492 17.548 187.588 17.244 188.884 17.244C189.764 17.244 190.564 17.428 191.284 17.796C192.004 18.148 192.572 18.676 192.988 19.38C193.404 20.068 193.612 20.884 193.612 21.828C193.612 22.228 193.564 22.668 193.468 23.148H184.78C184.748 23.532 184.732 23.82 184.732 24.012C184.732 25.628 185.092 26.932 185.812 27.924C186.532 28.9 187.564 29.388 188.908 29.388C189.724 29.388 190.452 29.212 191.092 28.86C191.732 28.492 192.332 27.996 192.892 27.372L193.636 28.5ZM188.86 18.612C187.868 18.612 187.044 18.9 186.388 19.476C185.748 20.036 185.292 20.804 185.02 21.78H191.812V21.612C191.812 20.652 191.516 19.916 190.924 19.404C190.348 18.876 189.66 18.612 188.86 18.612Z" fill="#0786FF"/>
<path d="M175.935 30.828C174.959 30.828 174.119 30.724 173.415 30.516C172.711 30.308 172.055 29.988 171.447 29.556L172.071 28.212C173.063 28.996 174.351 29.388 175.935 29.388C176.799 29.388 177.495 29.18 178.023 28.764C178.567 28.348 178.839 27.764 178.839 27.012C178.839 26.58 178.703 26.22 178.431 25.932C178.175 25.644 177.855 25.404 177.471 25.212C177.087 25.02 176.551 24.796 175.863 24.54C175.031 24.236 174.351 23.956 173.823 23.7C173.311 23.428 172.871 23.06 172.503 22.596C172.135 22.116 171.951 21.508 171.951 20.772C171.951 19.636 172.343 18.764 173.127 18.156C173.927 17.548 174.951 17.244 176.199 17.244C177.735 17.244 179.079 17.66 180.231 18.492L179.631 19.812C178.607 19.044 177.471 18.66 176.223 18.66C175.471 18.66 174.863 18.828 174.399 19.164C173.935 19.5 173.703 20.004 173.703 20.676C173.703 21.108 173.831 21.476 174.087 21.78C174.359 22.068 174.687 22.308 175.071 22.5C175.455 22.676 175.991 22.884 176.679 23.124C177.543 23.444 178.223 23.74 178.719 24.012C179.231 24.268 179.671 24.636 180.039 25.116C180.407 25.596 180.591 26.212 180.591 26.964C180.591 28.148 180.159 29.092 179.295 29.796C178.447 30.484 177.327 30.828 175.935 30.828Z" fill="#0786FF"/>
<path d="M167.974 17.7V30.372H166.558L166.294 28.98C164.742 30.212 163.23 30.828 161.758 30.828C160.398 30.828 159.462 30.476 158.95 29.772C158.454 29.068 158.206 28.044 158.206 26.7V17.7H160.006V26.58C160.006 27.556 160.166 28.26 160.486 28.692C160.822 29.124 161.382 29.34 162.166 29.34C162.79 29.34 163.422 29.196 164.062 28.908C164.718 28.62 165.422 28.172 166.174 27.564V17.7H167.974Z" fill="#0786FF"/>
<path d="M148.877 30.828C147.581 30.828 146.477 30.524 145.565 29.916C144.669 29.308 143.997 28.492 143.549 27.468C143.101 26.428 142.877 25.292 142.877 24.06C142.877 22.796 143.101 21.652 143.549 20.628C143.997 19.588 144.669 18.764 145.565 18.156C146.477 17.548 147.581 17.244 148.877 17.244C150.173 17.244 151.269 17.556 152.165 18.18C153.061 18.788 153.733 19.612 154.181 20.652C154.629 21.676 154.853 22.796 154.853 24.012C154.853 25.244 154.629 26.38 154.181 27.42C153.733 28.46 153.061 29.292 152.165 29.916C151.269 30.524 150.173 30.828 148.877 30.828ZM148.853 29.388C150.181 29.388 151.205 28.9 151.925 27.924C152.645 26.948 153.005 25.652 153.005 24.036C153.005 22.436 152.645 21.14 151.925 20.148C151.205 19.156 150.181 18.66 148.853 18.66C147.541 18.66 146.525 19.156 145.805 20.148C145.085 21.14 144.725 22.436 144.725 24.036C144.725 25.652 145.077 26.948 145.781 27.924C146.501 28.9 147.525 29.388 148.853 29.388Z" fill="#0786FF"/>
<path d="M138.998 14.052V30.372H137.126V22.452H127.982V30.372H126.11V14.052H127.982V21.012H137.126V14.052H138.998Z" fill="#0786FF"/>
<path d="M116.857 16.452C118.633 16.452 119.857 16.924 120.529 17.868C121.217 18.812 121.561 20.172 121.561 21.948V30.372H117.385V22.476C117.385 21.356 117.249 20.58 116.977 20.148C116.721 19.716 116.217 19.5 115.465 19.5C114.649 19.5 113.817 19.772 112.969 20.316V30.372H108.793V16.74H111.889L112.321 17.868C113.889 16.924 115.401 16.452 116.857 16.452Z" fill="#0786FF"/>
<path d="M106.796 30.228C106.284 30.34 105.828 30.42 105.428 30.468C105.044 30.516 104.588 30.54 104.06 30.54C102.524 30.54 101.516 30.044 101.036 29.052C100.364 29.548 99.6919 29.924 99.0199 30.18C98.3479 30.436 97.6119 30.564 96.8119 30.564C96.0919 30.564 95.4439 30.412 94.8679 30.108C94.2919 29.804 93.8439 29.396 93.5239 28.884C93.2039 28.372 93.0439 27.812 93.0439 27.204C93.0439 26.18 93.2999 25.372 93.8119 24.78C94.3399 24.172 95.0439 23.692 95.9239 23.34C96.8039 22.972 98.1399 22.532 99.9319 22.02L100.652 21.804V21.708C100.652 20.236 99.9799 19.5 98.6359 19.5C97.9799 19.5 97.2759 19.644 96.5239 19.932C95.7719 20.22 94.9079 20.684 93.9319 21.324L93.1399 18.444C94.2279 17.82 95.3319 17.332 96.4519 16.98C97.5879 16.628 98.7879 16.452 100.052 16.452C101.588 16.452 102.764 16.868 103.58 17.7C104.412 18.532 104.828 19.956 104.828 21.972V26.532C104.828 26.884 104.9 27.14 105.044 27.3C105.188 27.444 105.42 27.516 105.74 27.516C106.044 27.516 106.348 27.476 106.652 27.396L106.796 30.228ZM97.2199 26.652C97.2199 26.972 97.2999 27.204 97.4599 27.348C97.6359 27.492 97.9079 27.564 98.2759 27.564C98.9479 27.564 99.7399 27.276 100.652 26.7V24.156L100.292 24.276C99.0919 24.708 98.2759 25.092 97.8439 25.428C97.4279 25.748 97.2199 26.156 97.2199 26.652Z" fill="#0786FF"/>
<path d="M82.3829 24.324C82.4629 25.46 82.7429 26.3 83.2229 26.844C83.7029 27.388 84.4389 27.66 85.4309 27.66C86.1669 27.66 86.8469 27.532 87.4709 27.276C88.1109 27.004 88.8389 26.604 89.6549 26.076L90.7829 28.716C89.9349 29.404 89.0949 29.9 88.2629 30.204C87.4309 30.508 86.4789 30.66 85.4069 30.66C83.8229 30.66 82.4949 30.356 81.4229 29.748C80.3509 29.124 79.5509 28.284 79.0229 27.228C78.5109 26.156 78.2549 24.94 78.2549 23.58C78.2549 21.42 78.8629 19.692 80.0789 18.396C81.2949 17.1 83.0709 16.452 85.4069 16.452C87.2629 16.452 88.6709 16.956 89.6309 17.964C90.6069 18.956 91.1029 20.372 91.1189 22.212C91.1189 22.932 91.0149 23.636 90.8069 24.324H82.3829ZM87.0629 21.612C87.0789 21.516 87.0869 21.388 87.0869 21.228C87.0709 20.572 86.8949 20.076 86.5589 19.74C86.2229 19.388 85.7589 19.212 85.1669 19.212C83.7589 19.212 82.8789 20.012 82.5269 21.612H87.0629Z" fill="#0786FF"/>
<path d="M71.1995 11.172H75.3755V30.372H71.1995V11.172Z" fill="#0786FF"/>
<path d="M63.144 30.66C61.16 30.66 59.48 30.276 58.104 29.508C56.728 28.724 55.696 27.692 55.008 26.412C54.336 25.116 54 23.708 54 22.188C54 20.684 54.352 19.292 55.056 18.012C55.776 16.732 56.84 15.708 58.248 14.94C59.656 14.172 61.352 13.788 63.336 13.788C65.192 13.788 66.824 14.148 68.232 14.868L67.368 17.892C66.776 17.588 66.16 17.348 65.52 17.172C64.88 16.98 64.152 16.884 63.336 16.884C62.296 16.884 61.392 17.124 60.624 17.604C59.872 18.068 59.296 18.708 58.896 19.524C58.512 20.324 58.32 21.22 58.32 22.212C58.32 23.78 58.736 25.068 59.568 26.076C60.4 27.068 61.592 27.564 63.144 27.564C64.472 27.564 65.904 27.236 67.44 26.58L68.256 29.532C67.6 29.868 66.816 30.14 65.904 30.348C64.992 30.556 64.072 30.66 63.144 30.66Z" fill="#0786FF"/>
</svg>
