<svg width="140" height="118" viewBox="0 0 140 118" fill="none" xmlns="http://www.w3.org/2000/svg">
<rect x="26.8179" width="86" height="86" rx="43" fill="white"/>
<path d="M62.5055 67.75C61.3805 67.75 60.3965 67.384 59.5535 66.652C58.709 65.9215 58.2117 64.9937 58.0617 63.8687L54.4055 36.5312C54.3305 35.8563 54.518 35.2652 54.968 34.7582C55.418 34.2528 55.9805 34 56.6555 34H82.9805C83.6555 34 84.218 34.2528 84.668 34.7582C85.118 35.2652 85.3055 35.8563 85.2305 36.5312L81.5742 63.8687C81.4242 64.9937 80.927 65.9215 80.0825 66.652C79.2395 67.384 78.2555 67.75 77.1305 67.75H62.5055ZM62.5055 63.25H77.1305L80.393 38.5H59.1867L62.5055 63.25ZM69.818 52C71.693 52 73.2867 51.3438 74.5992 50.0312C75.9117 48.7188 76.568 47.125 76.568 45.25V43C76.568 42.3625 76.3527 41.8277 75.9222 41.3958C75.4902 40.9653 74.9555 40.75 74.318 40.75C73.6805 40.75 73.1465 40.9653 72.716 41.3958C72.284 41.8277 72.068 42.3625 72.068 43V45.25C72.068 45.8875 71.8527 46.4215 71.4222 46.852C70.9902 47.284 70.4555 47.5 69.818 47.5C69.1805 47.5 68.6465 47.284 68.216 46.852C67.784 46.4215 67.568 45.8875 67.568 45.25V43C67.568 42.3625 67.3527 41.8277 66.9222 41.3958C66.4902 40.9653 65.9555 40.75 65.318 40.75C64.6805 40.75 64.1465 40.9653 63.716 41.3958C63.284 41.8277 63.068 42.3625 63.068 43V45.25C63.068 47.125 63.7242 48.7188 65.0367 50.0312C66.3492 51.3438 67.943 52 69.818 52ZM76.568 31.75C75.6305 31.75 74.834 31.4215 74.1785 30.7645C73.5215 30.109 73.193 29.3125 73.193 28.375C73.193 27.4375 73.5215 26.641 74.1785 25.9855C74.834 25.3285 75.6305 25 76.568 25C77.5055 25 78.302 25.3285 78.9575 25.9855C79.6145 26.641 79.943 27.4375 79.943 28.375C79.943 29.3125 79.6145 30.109 78.9575 30.7645C78.302 31.4215 77.5055 31.75 76.568 31.75ZM65.318 29.5C63.743 29.5 62.4117 28.9563 61.3242 27.8688C60.2367 26.7812 59.693 25.45 59.693 23.875C59.693 22.3 60.2367 20.9688 61.3242 19.8813C62.4117 18.7938 63.743 18.25 65.318 18.25C66.893 18.25 68.2242 18.7938 69.3117 19.8813C70.3992 20.9688 70.943 22.3 70.943 23.875C70.943 25.45 70.3992 26.7812 69.3117 27.8688C68.2242 28.9563 66.893 29.5 65.318 29.5Z" fill="#0786FF"/>
<path d="M139.636 115.328C138.324 116.88 136.74 117.656 134.884 117.656C133.588 117.656 132.492 117.352 131.596 116.744C130.7 116.136 130.028 115.32 129.58 114.296C129.132 113.256 128.908 112.12 128.908 110.888C128.908 109.624 129.132 108.48 129.58 107.456C130.028 106.416 130.7 105.592 131.596 104.984C132.492 104.376 133.588 104.072 134.884 104.072C135.764 104.072 136.564 104.256 137.284 104.624C138.004 104.976 138.572 105.504 138.988 106.208C139.404 106.896 139.612 107.712 139.612 108.656C139.612 109.056 139.564 109.496 139.468 109.976H130.78C130.748 110.36 130.732 110.648 130.732 110.84C130.732 112.456 131.092 113.76 131.812 114.752C132.532 115.728 133.564 116.216 134.908 116.216C135.724 116.216 136.452 116.04 137.092 115.688C137.732 115.32 138.332 114.824 138.892 114.2L139.636 115.328ZM134.86 105.44C133.868 105.44 133.044 105.728 132.388 106.304C131.748 106.864 131.292 107.632 131.02 108.608H137.812V108.44C137.812 107.48 137.516 106.744 136.924 106.232C136.348 105.704 135.66 105.44 134.86 105.44Z" fill="white"/>
<path d="M121.935 117.656C120.959 117.656 120.119 117.552 119.415 117.344C118.711 117.136 118.055 116.816 117.447 116.384L118.071 115.04C119.063 115.824 120.351 116.216 121.935 116.216C122.799 116.216 123.495 116.008 124.023 115.592C124.567 115.176 124.839 114.592 124.839 113.84C124.839 113.408 124.703 113.048 124.431 112.76C124.175 112.472 123.855 112.232 123.471 112.04C123.087 111.848 122.551 111.624 121.863 111.368C121.031 111.064 120.351 110.784 119.823 110.528C119.311 110.256 118.871 109.888 118.503 109.424C118.135 108.944 117.951 108.336 117.951 107.6C117.951 106.464 118.343 105.592 119.127 104.984C119.927 104.376 120.951 104.072 122.199 104.072C123.735 104.072 125.079 104.488 126.231 105.32L125.631 106.64C124.607 105.872 123.471 105.488 122.223 105.488C121.471 105.488 120.863 105.656 120.399 105.992C119.935 106.328 119.703 106.832 119.703 107.504C119.703 107.936 119.831 108.304 120.087 108.608C120.359 108.896 120.687 109.136 121.071 109.328C121.455 109.504 121.991 109.712 122.679 109.952C123.543 110.272 124.223 110.568 124.719 110.84C125.231 111.096 125.671 111.464 126.039 111.944C126.407 112.424 126.591 113.04 126.591 113.792C126.591 114.976 126.159 115.92 125.295 116.624C124.447 117.312 123.327 117.656 121.935 117.656Z" fill="white"/>
<path d="M113.974 104.528V117.2H112.558L112.294 115.808C110.742 117.04 109.23 117.656 107.758 117.656C106.398 117.656 105.462 117.304 104.95 116.6C104.454 115.896 104.206 114.872 104.206 113.528V104.528H106.006V113.408C106.006 114.384 106.166 115.088 106.486 115.52C106.822 115.952 107.382 116.168 108.166 116.168C108.79 116.168 109.422 116.024 110.062 115.736C110.718 115.448 111.422 115 112.174 114.392V104.528H113.974Z" fill="white"/>
<path d="M94.8767 117.656C93.5807 117.656 92.4767 117.352 91.5647 116.744C90.6687 116.136 89.9967 115.32 89.5487 114.296C89.1007 113.256 88.8767 112.12 88.8767 110.888C88.8767 109.624 89.1007 108.48 89.5487 107.456C89.9967 106.416 90.6687 105.592 91.5647 104.984C92.4767 104.376 93.5807 104.072 94.8767 104.072C96.1727 104.072 97.2687 104.384 98.1647 105.008C99.0607 105.616 99.7327 106.44 100.181 107.48C100.629 108.504 100.853 109.624 100.853 110.84C100.853 112.072 100.629 113.208 100.181 114.248C99.7327 115.288 99.0607 116.12 98.1647 116.744C97.2687 117.352 96.1727 117.656 94.8767 117.656ZM94.8527 116.216C96.1807 116.216 97.2047 115.728 97.9247 114.752C98.6447 113.776 99.0047 112.48 99.0047 110.864C99.0047 109.264 98.6447 107.968 97.9247 106.976C97.2047 105.984 96.1807 105.488 94.8527 105.488C93.5407 105.488 92.5247 105.984 91.8047 106.976C91.0847 107.968 90.7247 109.264 90.7247 110.864C90.7247 112.48 91.0767 113.776 91.7807 114.752C92.5007 115.728 93.5247 116.216 94.8527 116.216Z" fill="white"/>
<path d="M84.9976 100.88V117.2H83.1256V109.28H73.9816V117.2H72.1096V100.88H73.9816V107.84H83.1256V100.88H84.9976Z" fill="white"/>
<path d="M62.8572 103.28C64.6332 103.28 65.8572 103.752 66.5292 104.696C67.2172 105.64 67.5612 107 67.5612 108.776V117.2H63.3852V109.304C63.3852 108.184 63.2492 107.408 62.9772 106.976C62.7212 106.544 62.2172 106.328 61.4652 106.328C60.6492 106.328 59.8172 106.6 58.9692 107.144V117.2H54.7932V103.568H57.8892L58.3212 104.696C59.8892 103.752 61.4012 103.28 62.8572 103.28Z" fill="white"/>
<path d="M52.7959 117.056C52.2839 117.168 51.8279 117.248 51.4279 117.296C51.0439 117.344 50.5879 117.368 50.0599 117.368C48.5239 117.368 47.5159 116.872 47.0359 115.88C46.3639 116.376 45.6919 116.752 45.0199 117.008C44.3479 117.264 43.6119 117.392 42.8119 117.392C42.0919 117.392 41.4439 117.24 40.8679 116.936C40.2919 116.632 39.8439 116.224 39.5239 115.712C39.2039 115.2 39.0439 114.64 39.0439 114.032C39.0439 113.008 39.2999 112.2 39.8119 111.608C40.3399 111 41.0439 110.52 41.9239 110.168C42.8039 109.8 44.1399 109.36 45.9319 108.848L46.6519 108.632V108.536C46.6519 107.064 45.9799 106.328 44.6359 106.328C43.9799 106.328 43.2759 106.472 42.5239 106.76C41.7719 107.048 40.9079 107.512 39.9319 108.152L39.1399 105.272C40.2279 104.648 41.3319 104.16 42.4519 103.808C43.5879 103.456 44.7879 103.28 46.0519 103.28C47.5879 103.28 48.7639 103.696 49.5799 104.528C50.4119 105.36 50.8279 106.784 50.8279 108.8V113.36C50.8279 113.712 50.8999 113.968 51.0439 114.128C51.1879 114.272 51.4199 114.344 51.7399 114.344C52.0439 114.344 52.3479 114.304 52.6519 114.224L52.7959 117.056ZM43.2199 113.48C43.2199 113.8 43.2999 114.032 43.4599 114.176C43.6359 114.32 43.9079 114.392 44.2759 114.392C44.9479 114.392 45.7399 114.104 46.6519 113.528V110.984L46.2919 111.104C45.0919 111.536 44.2759 111.92 43.8439 112.256C43.4279 112.576 43.2199 112.984 43.2199 113.48Z" fill="white"/>
<path d="M28.3829 111.152C28.4629 112.288 28.7429 113.128 29.2229 113.672C29.7029 114.216 30.4389 114.488 31.4309 114.488C32.1669 114.488 32.8469 114.36 33.4709 114.104C34.1109 113.832 34.8389 113.432 35.6549 112.904L36.7829 115.544C35.9349 116.232 35.0949 116.728 34.2629 117.032C33.4309 117.336 32.4789 117.488 31.4069 117.488C29.8229 117.488 28.4949 117.184 27.4229 116.576C26.3509 115.952 25.5509 115.112 25.0229 114.056C24.5109 112.984 24.2549 111.768 24.2549 110.408C24.2549 108.248 24.8629 106.52 26.0789 105.224C27.2949 103.928 29.0709 103.28 31.4069 103.28C33.2629 103.28 34.6709 103.784 35.6309 104.792C36.6069 105.784 37.1029 107.2 37.1189 109.04C37.1189 109.76 37.0149 110.464 36.8069 111.152H28.3829ZM33.0629 108.44C33.0789 108.344 33.0869 108.216 33.0869 108.056C33.0709 107.4 32.8949 106.904 32.5589 106.568C32.2229 106.216 31.7589 106.04 31.1669 106.04C29.7589 106.04 28.8789 106.84 28.5269 108.44H33.0629Z" fill="white"/>
<path d="M17.1995 98H21.3755V117.2H17.1995V98Z" fill="white"/>
<path d="M9.144 117.488C7.16 117.488 5.48 117.104 4.104 116.336C2.728 115.552 1.696 114.52 1.008 113.24C0.336 111.944 0 110.536 0 109.016C0 107.512 0.352 106.12 1.056 104.84C1.776 103.56 2.84 102.536 4.248 101.768C5.656 101 7.352 100.616 9.336 100.616C11.192 100.616 12.824 100.976 14.232 101.696L13.368 104.72C12.776 104.416 12.16 104.176 11.52 104C10.88 103.808 10.152 103.712 9.336 103.712C8.296 103.712 7.392 103.952 6.624 104.432C5.872 104.896 5.296 105.536 4.896 106.352C4.512 107.152 4.32 108.048 4.32 109.04C4.32 110.608 4.736 111.896 5.568 112.904C6.4 113.896 7.592 114.392 9.144 114.392C10.472 114.392 11.904 114.064 13.44 113.408L14.256 116.36C13.6 116.696 12.816 116.968 11.904 117.176C10.992 117.384 10.072 117.488 9.144 117.488Z" fill="white"/>
</svg>
