<svg width="50" height="50" viewBox="0 0 50 50" fill="none" xmlns="http://www.w3.org/2000/svg">
<rect width="50" height="50" rx="25" fill="#0786FF"/>
<path d="M21.25 37.5C20.5625 37.5 19.9742 37.2554 19.485 36.7663C18.995 36.2763 18.75 35.6875 18.75 35V30H16.75C15.9375 30 15.2342 29.7029 14.64 29.1087C14.0467 28.5154 13.75 27.8125 13.75 27C13.75 26.3958 13.9117 25.8383 14.235 25.3275C14.5575 24.8175 15 24.4375 15.5625 24.1875L23.75 20.5625V19.75C23.0208 19.5 22.4217 19.0571 21.9525 18.4212C21.4842 17.7863 21.25 17.0625 21.25 16.25C21.25 15.1875 21.6096 14.2967 22.3287 13.5775C23.0471 12.8592 23.9375 12.5 25 12.5C25.875 12.5 26.63 12.7133 27.265 13.14C27.9008 13.5675 28.3125 14.1146 28.5 14.7812C28.6042 15.1771 28.5417 15.5208 28.3125 15.8125C28.0833 16.1042 27.7396 16.25 27.2812 16.25C26.9896 16.25 26.7396 16.1821 26.5312 16.0462C26.3229 15.9112 26.1354 15.7292 25.9688 15.5C25.8646 15.3333 25.7242 15.2083 25.5475 15.125C25.37 15.0417 25.1875 15 25 15C24.6458 15 24.3492 15.1196 24.11 15.3588C23.87 15.5988 23.75 15.8958 23.75 16.25C23.75 16.6042 23.87 16.9012 24.11 17.1412C24.3492 17.3804 24.6458 17.5 25 17.5C25.3542 17.5 25.6513 17.6196 25.8913 17.8588C26.1304 18.0988 26.25 18.3958 26.25 18.75V20.5625L34.4375 24.1875C35 24.4375 35.4429 24.8175 35.7663 25.3275C36.0888 25.8383 36.25 26.3958 36.25 27C36.25 27.8125 35.9533 28.5154 35.36 29.1087C34.7658 29.7029 34.0625 30 33.25 30H31.25V35C31.25 35.6875 31.0054 36.2763 30.5163 36.7663C30.0263 37.2554 29.4375 37.5 28.75 37.5H21.25ZM16.75 27.5H19.0938C19.3646 27.0833 19.6721 26.7708 20.0162 26.5625C20.3596 26.3542 20.7708 26.25 21.25 26.25H28.75C29.2292 26.25 29.6408 26.3542 29.985 26.5625C30.3283 26.7708 30.6354 27.0833 30.9062 27.5H33.25C33.4375 27.5 33.5679 27.4375 33.6413 27.3125C33.7138 27.1875 33.75 27.0625 33.75 26.9375C33.75 26.8333 33.7242 26.7446 33.6725 26.6712C33.62 26.5988 33.5417 26.5417 33.4375 26.5L25 22.75L16.5625 26.5C16.4583 26.5417 16.38 26.5988 16.3275 26.6712C16.2758 26.7446 16.25 26.8333 16.25 26.9375C16.25 27.1042 16.2917 27.2396 16.375 27.3438C16.4583 27.4479 16.5833 27.5 16.75 27.5ZM21.25 35H28.75V28.75H21.25V35Z" fill="white"/>
</svg>
