<svg width="50" height="50" viewBox="0 0 50 50" fill="none" xmlns="http://www.w3.org/2000/svg">
<rect width="50" height="50" rx="25" fill="#0786FF"/>
<path d="M20.9375 38.75C20.3125 38.75 19.7659 38.5467 19.2975 38.14C18.8284 37.7342 18.5521 37.2188 18.4688 36.5938L16.4375 21.4062C16.3959 21.0312 16.5 20.7029 16.75 20.4212C17 20.1404 17.3125 20 17.6875 20H32.3125C32.6875 20 33 20.1404 33.25 20.4212C33.5 20.7029 33.6042 21.0312 33.5625 21.4062L31.5313 36.5938C31.4479 37.2188 31.1717 37.7342 30.7025 38.14C30.2342 38.5467 29.6875 38.75 29.0625 38.75H20.9375ZM20.9375 36.25H29.0625L30.875 22.5H19.0938L20.9375 36.25ZM25 30C26.0417 30 26.9271 29.6354 27.6563 28.9062C28.3854 28.1771 28.75 27.2917 28.75 26.25V25C28.75 24.6458 28.6304 24.3487 28.3913 24.1087C28.1513 23.8696 27.8542 23.75 27.5 23.75C27.1459 23.75 26.8492 23.8696 26.61 24.1087C26.37 24.3487 26.25 24.6458 26.25 25V26.25C26.25 26.6042 26.1304 26.9008 25.8913 27.14C25.6513 27.38 25.3542 27.5 25 27.5C24.6459 27.5 24.3492 27.38 24.11 27.14C23.87 26.9008 23.75 26.6042 23.75 26.25V25C23.75 24.6458 23.6304 24.3487 23.3913 24.1087C23.1513 23.8696 22.8542 23.75 22.5 23.75C22.1459 23.75 21.8492 23.8696 21.61 24.1087C21.37 24.3487 21.25 24.6458 21.25 25V26.25C21.25 27.2917 21.6146 28.1771 22.3438 28.9062C23.0729 29.6354 23.9584 30 25 30ZM28.75 18.75C28.2292 18.75 27.7867 18.5675 27.4225 18.2025C27.0575 17.8383 26.875 17.3958 26.875 16.875C26.875 16.3542 27.0575 15.9117 27.4225 15.5475C27.7867 15.1825 28.2292 15 28.75 15C29.2709 15 29.7134 15.1825 30.0775 15.5475C30.4425 15.9117 30.625 16.3542 30.625 16.875C30.625 17.3958 30.4425 17.8383 30.0775 18.2025C29.7134 18.5675 29.2709 18.75 28.75 18.75ZM22.5 17.5C21.625 17.5 20.8854 17.1979 20.2813 16.5938C19.6771 15.9896 19.375 15.25 19.375 14.375C19.375 13.5 19.6771 12.7604 20.2813 12.1562C20.8854 11.5521 21.625 11.25 22.5 11.25C23.375 11.25 24.1146 11.5521 24.7188 12.1562C25.3229 12.7604 25.625 13.5 25.625 14.375C25.625 15.25 25.3229 15.9896 24.7188 16.5938C24.1146 17.1979 23.375 17.5 22.5 17.5Z" fill="white"/>
</svg>
