<svg width="50" height="50" viewBox="0 0 50 50" fill="none" xmlns="http://www.w3.org/2000/svg">
<rect width="50" height="50" rx="25" fill="#0786FF"/>
<path d="M31 22L30.35 20.625L29 20L30.35 19.375L31 18L31.625 19.375L33 20L31.625 20.625L31 22ZM34 27C33.45 27 32.979 26.804 32.587 26.412C32.1957 26.0207 32 25.55 32 25C32 24.6667 32.1123 24.246 32.337 23.738C32.5623 23.2293 32.975 22.525 33.575 21.625C33.6917 21.4417 33.8333 21.35 34 21.35C34.1667 21.35 34.3083 21.4417 34.425 21.625C35.025 22.525 35.4377 23.2293 35.663 23.738C35.8877 24.246 36 24.6667 36 25C36 25.55 35.8043 26.0207 35.413 26.412C35.021 26.804 34.55 27 34 27ZM29 24.65L27 23.9C26.9667 23.1 26.6627 22.4167 26.088 21.85C25.5127 21.2833 24.8167 21 24 21C23.45 21 22.946 21.1373 22.488 21.412C22.0293 21.6873 21.6667 22.05 21.4 22.5H19.25C19.5333 21.65 20.0043 20.9167 20.663 20.3C21.321 19.6833 22.1 19.2833 23 19.1V17H22.5C22.2167 17 21.9793 16.904 21.788 16.712C21.596 16.5207 21.5 16.2833 21.5 16C21.5 15.7167 21.596 15.479 21.788 15.287C21.9793 15.0957 22.2167 15 22.5 15H27C27.25 15 27.5 15.0167 27.75 15.05C28 15.0833 28.275 15.1583 28.575 15.275C28.9583 15.4083 29.2 15.629 29.3 15.937C29.4 16.2457 29.35 16.5417 29.15 16.825C29.0167 17.025 28.8333 17.15 28.6 17.2C28.3667 17.25 28.1333 17.2333 27.9 17.15C27.7667 17.1 27.625 17.0623 27.475 17.037C27.325 17.0123 27.1667 17 27 17H25V19.1C26.15 19.3333 27.1043 19.904 27.863 20.812C28.621 21.7207 29 22.7833 29 24V24.65ZM27.95 33.4L33.9 31.55C33.8167 31.4 33.696 31.271 33.538 31.163C33.3793 31.0543 33.2 31 33 31H27.95C27.5 31 27.1417 30.9833 26.875 30.95C26.6083 30.9167 26.3333 30.85 26.05 30.75L24.625 30.275C24.3583 30.1917 24.1667 30.025 24.05 29.775C23.9333 29.525 23.9167 29.2667 24 29C24.0833 28.7333 24.246 28.5373 24.488 28.412C24.7293 28.2873 24.9833 28.2667 25.25 28.35L26.3 28.7C26.5833 28.7833 26.9043 28.85 27.263 28.9C27.621 28.95 28.1083 28.9833 28.725 29H29C29 28.8167 28.946 28.6417 28.838 28.475C28.7293 28.3083 28.6 28.2 28.45 28.15L22.6 26H21V31.5L27.95 33.4ZM27.425 35.35L21 33.55C20.8667 33.9833 20.6043 34.3333 20.213 34.6C19.821 34.8667 19.4167 35 19 35H17C16.45 35 15.9793 34.8043 15.588 34.413C15.196 34.021 15 33.55 15 33V26C15 25.45 15.196 24.979 15.588 24.587C15.9793 24.1957 16.45 24 17 24H22.6C22.7167 24 22.8333 24.0123 22.95 24.037C23.0667 24.0623 23.175 24.0917 23.275 24.125L29.15 26.3C29.7 26.5 30.146 26.85 30.488 27.35C30.8293 27.85 31 28.4 31 29H33C33.8333 29 34.5417 29.275 35.125 29.825C35.7083 30.375 36 31.1 36 32C36 32.3667 35.904 32.6543 35.712 32.863C35.5207 33.071 35.225 33.2417 34.825 33.375L28.575 35.325C28.3917 35.3917 28.2 35.425 28 35.425C27.8 35.425 27.6083 35.4 27.425 35.35ZM17 33H19V26H17V33Z" fill="white"/>
</svg>
